<svg xmlns="http://www.w3.org/2000/svg" width="512" height="512" version="1" viewBox="0 0 364 364">
  <g fill="#c7c7c7" fill-rule="evenodd" clip-rule="evenodd">
    <path d="M244 83H120c-20 0-37 17-37 37v124c0 20 17 37 37 37h124c20 0 37-17 37-37V120c0-20-17-37-37-37zm-62 164a65 65 0 1 1 0-130 65 65 0 0 1 0 130zm67-116a15 15 0 1 1 0-31 15 15 0 0 1 0 31z"/>
    <path d="M182 145a38 38 0 1 0 0 75 38 38 0 0 0 0-75z"/>
    <path d="M0 0v364h364V0H0zm308 244c0 35-29 64-64 64H120c-35 0-64-29-64-64V120c0-35 29-64 64-64h124c35 0 64 29 64 64v124z"/>
  </g>
</svg>
